HIERARCHY
ROOT joint_0
{
	OFFSET 0.000000 0.000000 0.000000
	CHANNELS 6 Xposition Yposition Zposition Zrotation Yrotation Xrotation 
	JOINT joint_1
	{
		OFFSET 1.363060 -1.794630 0.839290
		CHANNELS 3 Zrotation Yrotation Xrotation
		JOINT joint_2
		{
			OFFSET 2.448110 -6.726130 0.000000
			CHANNELS 3 Zrotation Yrotation Xrotation
			JOINT joint_3
			{
				OFFSET 2.562200 -7.039590 0.000000
				CHANNELS 3 Zrotation Yrotation Xrotation
				JOINT joint_4
				{
					OFFSET 0.157640 -0.433110 2.322550
					CHANNELS 3 Zrotation Yrotation Xrotation
					End Site
					{
						OFFSET 0.000000 0.000000 0.000000
					}
				}
			}
		}
	}
	JOINT joint_5
	{
		OFFSET -1.305520 -1.794630 0.839290
		CHANNELS 3 Zrotation Yrotation Xrotation
		JOINT joint_6
		{
			OFFSET -2.542530 -6.985550 0.000000
			CHANNELS 3 Zrotation Yrotation Xrotation
			JOINT joint_7
			{
				OFFSET -2.568260 -7.056230 0.000000
				CHANNELS 3 Zrotation Yrotation Xrotation
				JOINT joint_8
				{
					OFFSET -0.164730 -0.452590 2.363150
					CHANNELS 3 Zrotation Yrotation Xrotation
					End Site
					{
						OFFSET 0.000000 0.000000 0.000000
					}
				}
			}
		}
	}
	JOINT joint_9
	{
		OFFSET 0.028270 2.035590 -0.193380
		CHANNELS 3 Zrotation Yrotation Xrotation
		JOINT joint_10
		{
			OFFSET 0.056720 2.048850 -0.042750
			CHANNELS 3 Zrotation Yrotation Xrotation
			JOINT joint_11
			{
				OFFSET -0.054170 1.746240 0.172020
				CHANNELS 3 Zrotation Yrotation Xrotation
				JOINT joint_12
				{
					OFFSET 0.104070 1.761360 -0.123970
					CHANNELS 3 Zrotation Yrotation Xrotation
					End Site
					{
						OFFSET 0.000000 0.000000 0.000000
					}
				}
			}
			JOINT joint_13
			{
				OFFSET 3.362410 1.200890 -0.311210
				CHANNELS 3 Zrotation Yrotation Xrotation
				JOINT joint_14
				{
					OFFSET 4.983000 -0.000000 -0.000000
					CHANNELS 3 Zrotation Yrotation Xrotation
					JOINT joint_15
					{
						OFFSET 3.483560 -0.000000 -0.000000
						CHANNELS 3 Zrotation Yrotation Xrotation
						JOINT joint_16
						{
							OFFSET 0.715260 -0.000000 -0.000000
							CHANNELS 3 Zrotation Yrotation Xrotation
							End Site
							{
								OFFSET 0.000000 0.000000 0.000000
							}
						}
					}
				}
			}
			JOINT joint_17
			{
				OFFSET -3.136600 1.374050 -0.404650
				CHANNELS 3 Zrotation Yrotation Xrotation
				JOINT joint_18
				{
					OFFSET -5.241900 -0.000000 -0.000000
					CHANNELS 3 Zrotation Yrotation Xrotation
					JOINT joint_19
					{
						OFFSET -3.444170 -0.000000 -0.000000
						CHANNELS 3 Zrotation Yrotation Xrotation
						JOINT joint_20
						{
							OFFSET -0.622530 -0.000000 -0.000000
							CHANNELS 3 Zrotation Yrotation Xrotation
							End Site
							{
								OFFSET 0.000000 0.000000 0.000000
							}
						}
					}
				}
			}
		}
	}
}
MOTION
Frames: 15
Frame Time: 0.041667
9.084300 17.963200 31.786200 -174.132004 0.969800 174.378998 -10.282700 -1.420500 -4.037600 1.295200 7.210500 20.340401 0.319000 -1.312800 -10.289100 0.034600 -1.201000 -3.302100 22.219900 2.945000 -2.739700 -1.462500 -7.642900 21.634701 -0.236300 -4.924000 -12.322500 -0.144900 -2.453200 6.760000 3.680700 1.376200 -0.089900 2.038200 0.743400 -6.623300 5.429000 -5.684300 14.239500 2.385100 -2.875400 6.059700 -91.340401 11.487300 34.741402 30.020800 -40.911201 -11.423300 0.000000 0.000000 -5.675200 -7.125000 0.000000 0.000000 84.679100 -4.398900 22.601500 -19.344500 29.844500 -5.201200 0.000000 0.000000 -15.816000 7.125000 0.000000 0.000000 
9.085500 17.980400 31.777500 -174.393005 1.235700 174.701996 -10.564200 -1.393300 -4.056600 1.234300 7.045300 19.849800 0.304800 -0.960500 -10.134100 0.031800 -1.151100 -3.164600 21.949100 3.277600 -2.973700 -1.458200 -7.632300 21.602699 -0.241900 -4.818900 -12.324100 -0.157900 -2.560600 7.057600 3.618800 1.467700 -0.159200 2.106500 0.789500 -6.693900 5.377500 -5.660000 14.386800 2.356800 -2.852700 6.186100 -91.134499 11.305500 35.588699 30.776300 -41.549599 -11.921200 0.000000 0.000000 -4.916900 -7.125000 0.000000 0.000000 84.551300 -3.915800 22.849501 -19.803200 30.404499 -5.431400 0.000000 0.000000 -15.669100 7.125000 0.000000 0.000000 
9.085800 17.986200 31.769501 -174.651993 1.381800 174.936005 -10.836500 -1.318100 -4.050500 1.187800 6.916300 19.467600 0.300300 -0.841400 -10.088900 0.026300 -1.046000 -2.875400 21.664000 3.461100 -3.173200 -1.459000 -7.634300 21.608601 -0.249400 -4.716800 -12.361800 -0.164700 -2.614500 7.207300 3.506400 1.555200 -0.169700 2.075500 0.830800 -6.710600 5.332500 -5.667500 14.224000 2.320400 -2.841300 6.168700 -90.788399 10.973300 36.602299 31.379601 -42.046902 -12.323300 0.000000 0.000000 -4.316800 -7.125000 0.000000 0.000000 84.497902 -3.314600 22.921801 -20.212099 30.897100 -5.639900 0.000000 0.000000 -15.827200 7.125000 0.000000 0.000000 
9.082400 17.988600 31.764700 -174.828003 1.492600 175.119995 -11.047100 -1.444900 -3.945400 1.149300 6.807000 19.144899 0.300500 -0.591900 -10.163000 0.021800 -0.952300 -2.617500 21.446600 3.569000 -3.414000 -1.467200 -7.654700 21.670099 -0.244600 -4.670700 -12.242700 -0.141800 -2.426700 6.686500 3.428900 1.591300 -0.124000 2.018500 0.847000 -6.641500 5.161000 -5.559200 13.641100 2.262900 -2.783300 5.945500 -90.543800 10.644500 37.388599 32.007599 -42.553200 -12.746000 0.000000 0.000000 -3.530900 -7.125000 0.000000 0.000000 84.374199 -2.654600 23.096100 -20.551701 31.301300 -5.815300 0.000000 0.000000 -16.005199 7.125000 0.000000 0.000000 
9.077300 17.990900 31.761400 -174.988998 1.516700 175.285004 -11.231700 -1.466500 -3.966100 1.120300 6.723500 18.898800 0.301500 -0.447000 -10.222600 0.027700 -1.074300 -2.953200 21.227900 3.611500 -3.682300 -1.480300 -7.687500 21.768801 -0.241700 -4.594500 -12.128200 -0.128400 -2.309700 6.362300 3.390100 1.573600 -0.041800 2.022300 0.840300 -6.554900 4.954200 -5.444300 13.327800 2.201000 -2.723600 5.874300 -90.349297 10.155700 38.088600 32.654900 -43.063099 -13.185900 0.000000 0.000000 -2.827300 -7.125000 0.000000 0.000000 84.157600 -1.951800 23.467899 -20.876499 31.683901 -5.984900 0.000000 0.000000 -16.267000 7.125000 0.000000 0.000000 
9.076500 17.994301 31.754299 -175.167007 1.495800 175.414001 -11.403000 -1.247500 -4.100500 1.100200 6.665100 18.726900 0.306300 -0.573400 -10.267700 0.024500 -1.010700 -2.778200 21.008600 3.629200 -3.888300 -1.494900 -7.723500 21.877399 -0.242500 -4.580400 -12.131100 -0.114600 -2.182900 6.011300 3.336500 1.586100 0.006700 2.042700 0.848800 -6.558500 4.818400 -5.412700 13.462200 2.149400 -2.702200 6.011600 -90.084099 9.606400 38.749802 33.145901 -43.441898 -13.522300 0.000000 0.000000 -2.378100 -7.125000 0.000000 0.000000 84.074898 -1.275200 23.415199 -21.163099 32.018299 -6.136200 0.000000 0.000000 -16.306000 7.125000 0.000000 0.000000 
9.082100 17.998501 31.752899 -175.048996 1.515800 175.548004 -11.198500 -0.918700 -4.293200 1.086700 6.625100 18.609501 0.305400 -0.867200 -10.169700 0.018400 -0.875600 -2.406500 21.176701 3.797500 -4.060600 -1.512100 -7.765700 22.004700 -0.236200 -4.772100 -12.188700 -0.094500 -1.982300 5.456700 3.413600 1.594300 -0.084300 2.081100 0.852900 -6.812100 4.821700 -5.302100 13.493500 2.191200 -2.652800 6.054400 -89.941498 9.333400 39.128201 33.572601 -43.765598 -13.816600 0.000000 0.000000 -1.800100 -7.125000 0.000000 0.000000 84.015198 -0.788600 23.124201 -21.398600 32.290699 -6.261500 0.000000 0.000000 -16.346001 7.125000 0.000000 0.000000 
9.089500 17.997601 31.760000 -175.082993 1.389100 175.636002 -11.160400 -0.816000 -4.458700 1.085400 6.621300 18.598200 0.299700 -1.198500 -9.990000 0.007500 -0.558200 -1.534000 21.198700 3.979900 -4.164400 -1.528800 -7.806700 22.128401 -0.229300 -5.038300 -12.306100 -0.089900 -1.934200 5.323800 3.533100 1.527100 -0.209700 2.319800 0.829600 -7.211400 4.821900 -5.149400 13.387500 2.262800 -2.592300 6.021800 -89.936600 9.158500 39.433300 33.977600 -44.068100 -14.097500 0.000000 0.000000 -1.258300 -7.125000 0.000000 0.000000 83.813103 -0.442800 22.940800 -21.695900 32.631599 -6.421100 0.000000 0.000000 -16.220400 7.125000 0.000000 0.000000 
9.088400 17.989401 31.759001 -175.451004 1.299700 175.610001 -11.565900 -0.988100 -4.432900 1.096500 6.654100 18.694401 0.304600 -1.258300 -10.059400 0.000300 -0.117600 -0.323100 20.798300 3.978400 -4.149600 -1.544500 -7.844800 22.243799 -0.236100 -5.045100 -12.425500 -0.093600 -1.973500 5.432400 3.459200 1.497800 -0.165900 2.420400 0.822400 -7.332500 4.697500 -5.020900 13.194300 2.254900 -2.537100 5.964200 -89.802101 8.717900 39.681999 34.143002 -44.190399 -14.212700 0.000000 0.000000 -0.791800 -7.125000 0.000000 0.000000 83.789597 0.020300 22.569700 -22.032101 33.013302 -6.603300 0.000000 0.000000 -15.805000 7.125000 0.000000 0.000000 
9.081800 17.979200 31.751101 -175.524002 1.319500 175.641006 -11.690600 -1.176300 -4.450900 1.112200 6.700200 18.830099 0.316500 -1.092400 -10.298600 0.001500 -0.251900 -0.692200 20.683701 3.948200 -4.211600 -1.564200 -7.892300 22.387400 -0.256300 -4.865800 -12.602300 -0.109500 -2.133800 5.875500 3.346400 1.542900 -0.102800 2.189400 0.834600 -7.307500 4.317100 -4.926700 12.848900 2.105300 -2.498500 5.824300 -89.556396 8.260100 39.774799 34.167099 -44.208199 -14.229500 0.000000 0.000000 -0.188400 -7.125000 0.000000 0.000000 83.991997 0.489500 22.011400 -22.364201 33.386101 -6.785200 0.000000 0.000000 -15.378700 7.125000 0.000000 0.000000 
9.079700 17.973600 31.745800 -175.500000 1.370700 175.785995 -11.709000 -1.473000 -4.536400 1.127600 6.744800 18.961599 0.332600 -0.795500 -10.643300 0.008900 -0.608100 -1.671000 20.693300 4.081300 -4.427600 -1.591700 -7.958100 22.587000 -0.276600 -4.757800 -12.838000 -0.125700 -2.285100 6.294300 3.304600 1.642200 -0.200600 2.045900 0.874300 -7.502700 3.761000 -4.877500 12.754700 1.872100 -2.493800 5.760800 -89.400398 8.053800 39.858501 34.131001 -44.181499 -14.204300 0.000000 0.000000 0.218700 -7.125000 0.000000 0.000000 84.162201 0.732700 21.450199 -22.658701 33.713501 -6.948000 0.000000 0.000000 -14.922400 7.125000 0.000000 0.000000 
9.082500 17.969900 31.742901 -175.563995 1.528000 175.856003 -11.765400 -1.490600 -4.617800 1.142500 6.787700 19.087799 0.344200 -0.693300 -10.860200 0.015700 -0.808800 -2.222800 20.668800 4.386200 -4.534900 -1.621900 -8.029600 22.804100 -0.282300 -4.850400 -13.004800 -0.121100 -2.243100 6.178100 3.353000 1.695400 -0.213600 2.149600 0.906100 -7.607700 3.427400 -4.684500 12.665400 1.771100 -2.417200 5.714600 -89.455597 7.812400 39.712700 34.002399 -44.086498 -14.114800 0.000000 0.000000 0.379400 -7.125000 0.000000 0.000000 84.191200 1.134500 21.064600 -22.786600 33.854698 -7.019100 0.000000 0.000000 -14.502400 7.125000 0.000000 0.000000 
9.083900 17.968700 31.738701 -175.602005 1.675400 175.817001 -11.783400 -1.351900 -4.600000 1.149100 6.806500 19.143299 0.354300 -0.781000 -10.996100 0.012300 -0.716000 -1.967800 20.678101 4.612400 -4.555900 -1.653600 -8.104000 23.030300 -0.277400 -4.997000 -13.052400 -0.103300 -2.072400 5.705800 3.454900 1.607400 -0.089700 2.328000 0.874500 -7.502400 3.311300 -4.346400 12.247300 1.797700 -2.262000 5.541000 -89.624199 7.540900 39.241402 33.903801 -44.013302 -14.046200 0.000000 0.000000 0.446500 -7.125000 0.000000 0.000000 84.117203 1.616700 21.040400 -22.967699 34.053398 -7.120200 0.000000 0.000000 -14.223900 7.125000 0.000000 0.000000 
9.080500 17.969500 31.732100 -175.632996 1.639300 175.807999 -11.841800 -1.495400 -4.509600 1.150800 6.811300 19.157400 0.369100 -0.850500 -11.209800 0.003400 -0.376400 -1.034100 20.631599 4.617800 -4.653700 -1.684800 -8.176100 23.250200 -0.277900 -5.067900 -13.120300 -0.093300 -1.969700 5.421900 3.515300 1.474200 -0.061300 2.421200 0.814100 -7.514500 3.086500 -4.085100 11.924200 1.762100 -2.149000 5.386000 -89.661499 7.448100 38.852901 33.868301 -43.986900 -14.021500 0.000000 0.000000 0.363100 -7.125000 0.000000 0.000000 84.061501 1.818700 21.124500 -23.301399 34.416698 -7.307900 0.000000 0.000000 -14.098000 7.125000 0.000000 0.000000 
9.077800 17.967899 31.719801 -175.641006 1.621900 175.802994 -11.870800 -1.608300 -4.458400 1.156400 6.827500 19.205200 0.373600 -0.800300 -11.292400 0.003200 -0.367100 -1.008700 20.617599 4.627200 -4.673300 -1.705700 -8.224100 23.396900 -0.287300 -5.084100 -13.279100 -0.097900 -2.017400 5.553700 3.543600 1.458900 -0.024600 2.433400 0.808200 -7.538300 2.847200 -3.942500 11.818400 1.686700 -2.089200 5.345500 -89.550499 7.331100 38.709499 33.894299 -44.006302 -14.039600 0.000000 0.000000 0.196500 -7.125000 0.000000 0.000000 84.090500 2.032400 20.919901 -23.623199 34.763302 -7.490600 0.000000 0.000000 -14.122000 7.125000 0.000000 0.000000 
